<svg width="360" height="269" viewBox="0 0 360 269" fill="none" xmlns="http://www.w3.org/2000/svg">
<rect width="360" height="336" transform="translate(0 -82)" fill="#A0BAFF"/>
<rect x="2.15234" y="59.3071" width="3.44335" height="3.43576" fill="#C3D4FF"/>
<rect x="2.15234" y="52.436" width="3.44335" height="3.43576" fill="#C3D4FF"/>
<rect x="9.03882" y="59.3071" width="3.44335" height="3.43576" fill="#C3D4FF"/>
<rect x="9.0387" y="52.4355" width="3.44335" height="3.43576" fill="#C3D4FF"/>
<rect x="15.9246" y="59.3071" width="3.44335" height="3.43576" fill="#C3D4FF"/>
<rect x="15.9246" y="52.436" width="3.44335" height="3.43576" fill="#C3D4FF"/>
<rect x="22.8109" y="59.3071" width="3.44335" height="3.43576" fill="#C3D4FF"/>
<rect x="22.8109" y="52.4355" width="3.44335" height="3.43576" fill="#C3D4FF"/>
<rect x="29.6973" y="59.3071" width="3.44335" height="3.43576" fill="#C3D4FF"/>
<rect x="29.6973" y="52.436" width="3.44335" height="3.43576" fill="#C3D4FF"/>
<rect x="36.583" y="59.3071" width="3.44335" height="3.43576" fill="#C3D4FF"/>
<rect x="36.583" y="52.436" width="3.44335" height="3.43576" fill="#C3D4FF"/>
<rect x="43.4694" y="59.3071" width="3.44335" height="3.43576" fill="#C3D4FF"/>
<rect x="43.4692" y="52.4355" width="3.44335" height="3.43576" fill="#C3D4FF"/>
<rect x="50.3551" y="59.3071" width="3.44335" height="3.43576" fill="#C3D4FF"/>
<rect x="50.3551" y="52.436" width="3.44335" height="3.43576" fill="#C3D4FF"/>
<rect x="57.2415" y="59.3071" width="3.44335" height="3.43576" fill="#C3D4FF"/>
<rect x="57.2415" y="52.4355" width="3.44335" height="3.43576" fill="#C3D4FF"/>
<rect x="64.1279" y="59.3071" width="3.44335" height="3.43576" fill="#C3D4FF"/>
<rect x="64.1279" y="52.436" width="3.44335" height="3.43576" fill="#C3D4FF"/>
<rect x="71.0135" y="59.3071" width="3.44335" height="3.43576" fill="#C3D4FF"/>
<rect x="71.0137" y="52.4355" width="3.44335" height="3.43576" fill="#C3D4FF"/>
<rect x="77.9" y="59.3071" width="3.44335" height="3.43576" fill="#C3D4FF"/>
<rect x="77.9" y="52.436" width="3.44335" height="3.43576" fill="#C3D4FF"/>
<rect x="84.7856" y="59.3071" width="3.44335" height="3.43576" fill="#C3D4FF"/>
<rect x="84.7856" y="52.436" width="3.44335" height="3.43576" fill="#C3D4FF"/>
<rect x="91.6721" y="59.3071" width="3.44335" height="3.43576" fill="#C3D4FF"/>
<rect x="91.672" y="52.4355" width="3.44335" height="3.43576" fill="#C3D4FF"/>
<rect x="98.5579" y="59.3071" width="3.44335" height="3.43576" fill="#C3D4FF"/>
<rect x="98.5579" y="52.436" width="3.44335" height="3.43576" fill="#C3D4FF"/>
<rect x="105.444" y="59.3071" width="3.44335" height="3.43576" fill="#C3D4FF"/>
<rect x="105.444" y="52.4355" width="3.44335" height="3.43576" fill="#C3D4FF"/>
<rect x="112.331" y="59.3071" width="3.44335" height="3.43576" fill="#C3D4FF"/>
<rect x="112.331" y="52.436" width="3.44335" height="3.43576" fill="#C3D4FF"/>
<rect x="119.216" y="59.3071" width="3.44335" height="3.43576" fill="#C3D4FF"/>
<rect x="119.216" y="52.4355" width="3.44335" height="3.43576" fill="#C3D4FF"/>
<rect x="126.103" y="59.3071" width="3.44335" height="3.43576" fill="#C3D4FF"/>
<rect x="126.103" y="52.4355" width="3.44335" height="3.43576" fill="#C3D4FF"/>
<rect x="132.988" y="59.3071" width="3.44335" height="3.43576" fill="#C3D4FF"/>
<rect x="132.988" y="52.436" width="3.44335" height="3.43576" fill="#C3D4FF"/>
<rect x="139.875" y="59.3071" width="3.44335" height="3.43576" fill="#C3D4FF"/>
<rect x="139.875" y="52.4355" width="3.44335" height="3.43576" fill="#C3D4FF"/>
<rect x="146.761" y="59.3071" width="3.44335" height="3.43576" fill="#C3D4FF"/>
<rect x="146.761" y="52.436" width="3.44335" height="3.43576" fill="#C3D4FF"/>
<rect x="153.647" y="59.3071" width="3.44335" height="3.43576" fill="#C3D4FF"/>
<rect x="153.647" y="52.4355" width="3.44335" height="3.43576" fill="#C3D4FF"/>
<rect x="160.533" y="59.3071" width="3.44335" height="3.43576" fill="#C3D4FF"/>
<rect x="160.533" y="52.436" width="3.44335" height="3.43576" fill="#C3D4FF"/>
<rect x="167.419" y="59.3071" width="3.44335" height="3.43576" fill="#C3D4FF"/>
<rect x="167.419" y="52.436" width="3.44335" height="3.43576" fill="#C3D4FF"/>
<rect x="174.305" y="59.3071" width="3.44335" height="3.43576" fill="#C3D4FF"/>
<rect x="174.305" y="52.4355" width="3.44335" height="3.43576" fill="#C3D4FF"/>
<rect x="181.191" y="59.3071" width="3.44335" height="3.43576" fill="#C3D4FF"/>
<rect x="181.191" y="52.436" width="3.44335" height="3.43576" fill="#C3D4FF"/>
<rect x="188.078" y="59.3071" width="3.44335" height="3.43576" fill="#C3D4FF"/>
<rect x="188.078" y="52.4355" width="3.44335" height="3.43576" fill="#C3D4FF"/>
<rect x="194.964" y="59.3071" width="3.44335" height="3.43576" fill="#C3D4FF"/>
<rect x="194.964" y="52.436" width="3.44335" height="3.43576" fill="#C3D4FF"/>
<rect x="201.85" y="59.3071" width="3.44335" height="3.43576" fill="#C3D4FF"/>
<rect x="201.85" y="52.4355" width="3.44335" height="3.43576" fill="#C3D4FF"/>
<rect x="208.736" y="59.3071" width="3.44335" height="3.43576" fill="#C3D4FF"/>
<rect x="208.736" y="52.436" width="3.44335" height="3.43576" fill="#C3D4FF"/>
<rect x="215.622" y="59.3071" width="3.44335" height="3.43576" fill="#C3D4FF"/>
<rect x="215.622" y="52.436" width="3.44335" height="3.43576" fill="#C3D4FF"/>
<rect x="222.508" y="59.3071" width="3.44335" height="3.43576" fill="#C3D4FF"/>
<rect x="222.508" y="52.4355" width="3.44335" height="3.43576" fill="#C3D4FF"/>
<rect x="229.395" y="59.3071" width="3.44335" height="3.43576" fill="#C3D4FF"/>
<rect x="229.395" y="52.436" width="3.44335" height="3.43576" fill="#C3D4FF"/>
<rect x="236.28" y="59.3071" width="3.44335" height="3.43576" fill="#C3D4FF"/>
<rect x="236.28" y="52.4355" width="3.44335" height="3.43576" fill="#C3D4FF"/>
<rect x="243.167" y="59.3071" width="3.44335" height="3.43576" fill="#C3D4FF"/>
<rect x="243.167" y="52.436" width="3.44335" height="3.43576" fill="#C3D4FF"/>
<rect x="250.052" y="59.3071" width="3.44335" height="3.43576" fill="#C3D4FF"/>
<rect x="250.052" y="52.436" width="3.44335" height="3.43576" fill="#C3D4FF"/>
<rect x="256.939" y="59.3071" width="3.44335" height="3.43576" fill="#C3D4FF"/>
<rect x="256.939" y="52.4355" width="3.44335" height="3.43576" fill="#C3D4FF"/>
<rect x="5.59558" y="62.7432" width="3.44335" height="3.43576" fill="#C3D4FF"/>
<rect x="5.59558" y="55.8721" width="3.44335" height="3.43576" fill="#C3D4FF"/>
<rect x="5.5957" y="49" width="3.44335" height="3.43576" fill="#C3D4FF"/>
<rect x="12.4819" y="62.7432" width="3.44335" height="3.43576" fill="#C3D4FF"/>
<rect x="12.4819" y="55.8721" width="3.44335" height="3.43576" fill="#C3D4FF"/>
<rect x="9.0387" y="66.1787" width="10.3292" height="3.43576" fill="#C3D4FF"/>
<rect x="19.3677" y="62.7432" width="3.44335" height="3.43576" fill="#C3D4FF"/>
<rect x="19.3677" y="55.8721" width="3.44335" height="3.43576" fill="#C3D4FF"/>
<rect x="19.3677" y="49" width="3.44335" height="3.43576" fill="#C3D4FF"/>
<rect x="-1.29016" y="62.7432" width="3.44335" height="3.43576" fill="#C3D4FF"/>
<rect x="-1.29016" y="55.8721" width="3.44335" height="3.43576" fill="#C3D4FF"/>
<rect x="-4.73328" y="66.1787" width="10.3292" height="3.43576" fill="#C3D4FF"/>
<rect x="33.1398" y="62.7432" width="3.44335" height="3.43576" fill="#C3D4FF"/>
<rect x="33.1398" y="55.8721" width="3.44335" height="3.43576" fill="#C3D4FF"/>
<rect x="33.1398" y="49" width="3.44335" height="3.43576" fill="#C3D4FF"/>
<rect x="40.0261" y="62.7432" width="3.44335" height="3.43576" fill="#C3D4FF"/>
<rect x="40.0261" y="55.8721" width="3.44335" height="3.43576" fill="#C3D4FF"/>
<rect x="36.583" y="66.1787" width="10.3292" height="3.43576" fill="#C3D4FF"/>
<rect x="46.9126" y="62.7432" width="3.44335" height="3.43576" fill="#C3D4FF"/>
<rect x="46.9126" y="55.8721" width="3.44335" height="3.43576" fill="#C3D4FF"/>
<rect x="46.9126" y="49" width="3.44335" height="3.43576" fill="#C3D4FF"/>
<rect x="26.2539" y="62.7432" width="3.44335" height="3.43576" fill="#C3D4FF"/>
<rect x="26.254" y="55.8721" width="3.44335" height="3.43576" fill="#C3D4FF"/>
<rect x="22.8109" y="66.1787" width="10.3292" height="3.43576" fill="#C3D4FF"/>
<rect x="60.6847" y="62.7432" width="3.44335" height="3.43576" fill="#C3D4FF"/>
<rect x="60.6847" y="55.8721" width="3.44335" height="3.43576" fill="#C3D4FF"/>
<rect x="60.6847" y="49" width="3.44335" height="3.43576" fill="#C3D4FF"/>
<rect x="170.862" y="62.7432" width="3.44335" height="3.43576" fill="#C3D4FF"/>
<rect x="170.862" y="55.8721" width="3.44335" height="3.43576" fill="#C3D4FF"/>
<rect x="170.862" y="49" width="3.44335" height="3.43576" fill="#C3D4FF"/>
<rect x="67.5704" y="62.7432" width="3.44335" height="3.43576" fill="#C3D4FF"/>
<rect x="67.5704" y="55.8721" width="3.44335" height="3.43576" fill="#C3D4FF"/>
<rect x="177.749" y="62.7432" width="3.44335" height="3.43576" fill="#C3D4FF"/>
<rect x="177.749" y="55.8721" width="3.44335" height="3.43576" fill="#C3D4FF"/>
<rect x="64.1279" y="66.1787" width="10.3292" height="3.43576" fill="#C3D4FF"/>
<rect x="174.305" y="66.1787" width="10.3292" height="3.43576" fill="#C3D4FF"/>
<rect x="74.4568" y="62.7432" width="3.44335" height="3.43576" fill="#C3D4FF"/>
<rect x="74.4568" y="55.8721" width="3.44335" height="3.43576" fill="#C3D4FF"/>
<rect x="74.4568" y="49" width="3.44335" height="3.43576" fill="#C3D4FF"/>
<rect x="184.635" y="62.7432" width="3.44335" height="3.43576" fill="#C3D4FF"/>
<rect x="184.634" y="55.8721" width="3.44335" height="3.43576" fill="#C3D4FF"/>
<rect x="184.635" y="49" width="3.44335" height="3.43576" fill="#C3D4FF"/>
<rect x="53.7983" y="62.7432" width="3.44335" height="3.43576" fill="#C3D4FF"/>
<rect x="53.7983" y="55.8721" width="3.44335" height="3.43576" fill="#C3D4FF"/>
<rect x="163.976" y="62.7432" width="3.44335" height="3.43576" fill="#C3D4FF"/>
<rect x="163.976" y="55.8721" width="3.44335" height="3.43576" fill="#C3D4FF"/>
<rect x="50.3551" y="66.1787" width="10.3292" height="3.43576" fill="#C3D4FF"/>
<rect x="160.533" y="66.1787" width="10.3292" height="3.43576" fill="#C3D4FF"/>
<rect x="88.229" y="62.7432" width="3.44335" height="3.43576" fill="#C3D4FF"/>
<rect x="88.2289" y="55.8721" width="3.44335" height="3.43576" fill="#C3D4FF"/>
<rect x="88.229" y="49" width="3.44335" height="3.43576" fill="#C3D4FF"/>
<rect x="198.406" y="62.7432" width="3.44335" height="3.43576" fill="#C3D4FF"/>
<rect x="198.406" y="55.8721" width="3.44335" height="3.43576" fill="#C3D4FF"/>
<rect x="198.406" y="49" width="3.44335" height="3.43576" fill="#C3D4FF"/>
<rect x="95.1152" y="62.7432" width="3.44335" height="3.43576" fill="#C3D4FF"/>
<rect x="95.1152" y="55.8721" width="3.44335" height="3.43576" fill="#C3D4FF"/>
<rect x="205.293" y="62.7432" width="3.44335" height="3.43576" fill="#C3D4FF"/>
<rect x="205.293" y="55.8721" width="3.44335" height="3.43576" fill="#C3D4FF"/>
<rect x="91.672" y="66.1787" width="10.3292" height="3.43576" fill="#C3D4FF"/>
<rect x="201.85" y="66.1787" width="10.3292" height="3.43576" fill="#C3D4FF"/>
<rect x="102.001" y="62.7432" width="3.44335" height="3.43576" fill="#C3D4FF"/>
<rect x="102.001" y="55.8721" width="3.44335" height="3.43576" fill="#C3D4FF"/>
<rect x="102.001" y="49" width="3.44335" height="3.43576" fill="#C3D4FF"/>
<rect x="212.179" y="62.7432" width="3.44335" height="3.43576" fill="#C3D4FF"/>
<rect x="212.179" y="55.8721" width="3.44335" height="3.43576" fill="#C3D4FF"/>
<rect x="212.179" y="49" width="3.44335" height="3.43576" fill="#C3D4FF"/>
<rect x="81.3431" y="62.7432" width="3.44335" height="3.43576" fill="#C3D4FF"/>
<rect x="81.3431" y="55.8721" width="3.44335" height="3.43576" fill="#C3D4FF"/>
<rect x="191.521" y="62.7432" width="3.44335" height="3.43576" fill="#C3D4FF"/>
<rect x="191.521" y="55.8721" width="3.44335" height="3.43576" fill="#C3D4FF"/>
<rect x="77.9" y="66.1787" width="10.3292" height="3.43576" fill="#C3D4FF"/>
<rect x="188.078" y="66.1787" width="10.3292" height="3.43576" fill="#C3D4FF"/>
<rect x="115.773" y="62.7432" width="3.44335" height="3.43576" fill="#C3D4FF"/>
<rect x="115.773" y="55.8721" width="3.44335" height="3.43576" fill="#C3D4FF"/>
<rect x="115.773" y="49" width="3.44335" height="3.43576" fill="#C3D4FF"/>
<rect x="225.951" y="62.7432" width="3.44335" height="3.43576" fill="#C3D4FF"/>
<rect x="225.951" y="55.8721" width="3.44335" height="3.43576" fill="#C3D4FF"/>
<rect x="225.951" y="49" width="3.44335" height="3.43576" fill="#C3D4FF"/>
<rect x="122.66" y="62.7432" width="3.44335" height="3.43576" fill="#C3D4FF"/>
<rect x="122.66" y="55.8721" width="3.44335" height="3.43576" fill="#C3D4FF"/>
<rect x="232.837" y="62.7432" width="3.44335" height="3.43576" fill="#C3D4FF"/>
<rect x="232.837" y="55.8721" width="3.44335" height="3.43576" fill="#C3D4FF"/>
<rect x="119.216" y="66.1787" width="10.3292" height="3.43576" fill="#C3D4FF"/>
<rect x="229.395" y="66.1787" width="10.3292" height="3.43576" fill="#C3D4FF"/>
<rect x="129.546" y="62.7432" width="3.44335" height="3.43576" fill="#C3D4FF"/>
<rect x="129.546" y="55.8721" width="3.44335" height="3.43576" fill="#C3D4FF"/>
<rect x="129.546" y="49" width="3.44335" height="3.43576" fill="#C3D4FF"/>
<rect x="239.723" y="62.7432" width="3.44335" height="3.43576" fill="#C3D4FF"/>
<rect x="239.723" y="55.8721" width="3.44335" height="3.43576" fill="#C3D4FF"/>
<rect x="239.723" y="49" width="3.44335" height="3.43576" fill="#C3D4FF"/>
<rect x="108.887" y="62.7432" width="3.44335" height="3.43576" fill="#C3D4FF"/>
<rect x="108.887" y="55.8721" width="3.44335" height="3.43576" fill="#C3D4FF"/>
<rect x="219.065" y="62.7432" width="3.44335" height="3.43576" fill="#C3D4FF"/>
<rect x="219.065" y="55.8721" width="3.44335" height="3.43576" fill="#C3D4FF"/>
<rect x="105.444" y="66.1787" width="10.3292" height="3.43576" fill="#C3D4FF"/>
<rect x="215.622" y="66.1787" width="10.3292" height="3.43576" fill="#C3D4FF"/>
<rect x="143.318" y="62.7432" width="3.44335" height="3.43576" fill="#C3D4FF"/>
<rect x="143.318" y="55.8721" width="3.44335" height="3.43576" fill="#C3D4FF"/>
<rect x="143.318" y="49" width="3.44335" height="3.43576" fill="#C3D4FF"/>
<rect x="253.496" y="62.7432" width="3.44335" height="3.43576" fill="#C3D4FF"/>
<rect x="253.496" y="55.8721" width="3.44335" height="3.43576" fill="#C3D4FF"/>
<rect x="253.496" y="49" width="3.44335" height="3.43576" fill="#C3D4FF"/>
<rect x="150.204" y="62.7432" width="3.44335" height="3.43576" fill="#C3D4FF"/>
<rect x="150.204" y="55.8721" width="3.44335" height="3.43576" fill="#C3D4FF"/>
<rect x="260.382" y="62.7432" width="3.44335" height="3.43576" fill="#C3D4FF"/>
<rect x="260.382" y="55.8721" width="3.44335" height="3.43576" fill="#C3D4FF"/>
<rect x="146.761" y="66.1787" width="10.3292" height="3.43576" fill="#C3D4FF"/>
<rect x="256.939" y="66.1787" width="10.3292" height="3.43576" fill="#C3D4FF"/>
<rect x="157.09" y="62.7432" width="3.44335" height="3.43576" fill="#C3D4FF"/>
<rect x="157.09" y="55.8721" width="3.44335" height="3.43576" fill="#C3D4FF"/>
<rect x="157.09" y="49" width="3.44335" height="3.43576" fill="#C3D4FF"/>
<rect x="136.432" y="62.7432" width="3.44335" height="3.43576" fill="#C3D4FF"/>
<rect x="136.432" y="55.8721" width="3.44335" height="3.43576" fill="#C3D4FF"/>
<rect x="246.609" y="62.7432" width="3.44335" height="3.43576" fill="#C3D4FF"/>
<rect x="246.609" y="55.8721" width="3.44335" height="3.43576" fill="#C3D4FF"/>
<rect x="132.988" y="66.1787" width="10.3292" height="3.43576" fill="#C3D4FF"/>
<rect x="243.167" y="66.1787" width="10.3292" height="3.43576" fill="#C3D4FF"/>
<rect x="-170" y="69.6147" width="437.268" height="111.089" fill="#C3D4FF"/>
<rect x="267.027" y="62.7432" width="3.44335" height="3.43576" fill="#C3D4FF"/>
<rect x="267.027" y="55.8721" width="3.44335" height="3.43576" fill="#C3D4FF"/>
<rect x="267.027" y="49" width="3.44335" height="3.43576" fill="#C3D4FF"/>
<rect x="263.583" y="59.3071" width="3.44335" height="3.43576" fill="#C3D4FF"/>
<rect x="263.583" y="52.436" width="3.44335" height="3.43576" fill="#C3D4FF"/>
<rect x="270.47" y="59.3071" width="3.44335" height="3.43576" fill="#C3D4FF"/>
<rect x="270.47" y="52.4355" width="3.44335" height="3.43576" fill="#C3D4FF"/>
<rect x="277.356" y="59.3071" width="3.44335" height="3.43576" fill="#C3D4FF"/>
<rect x="277.356" y="52.436" width="3.44335" height="3.43576" fill="#C3D4FF"/>
<rect x="284.242" y="59.3071" width="3.44335" height="3.43576" fill="#C3D4FF"/>
<rect x="284.242" y="52.4355" width="3.44335" height="3.43576" fill="#C3D4FF"/>
<rect x="291.128" y="59.3071" width="3.44335" height="3.43576" fill="#C3D4FF"/>
<rect x="291.128" y="52.436" width="3.44335" height="3.43576" fill="#C3D4FF"/>
<rect x="298.014" y="59.3071" width="3.44335" height="3.43576" fill="#C3D4FF"/>
<rect x="298.014" y="52.436" width="3.44335" height="3.43576" fill="#C3D4FF"/>
<rect x="304.901" y="59.3071" width="3.44335" height="3.43576" fill="#C3D4FF"/>
<rect x="304.9" y="52.4355" width="3.44335" height="3.43576" fill="#C3D4FF"/>
<rect x="311.786" y="59.3071" width="3.44335" height="3.43576" fill="#C3D4FF"/>
<rect x="311.786" y="52.436" width="3.44335" height="3.43576" fill="#C3D4FF"/>
<rect x="318.673" y="59.3071" width="3.44335" height="3.43576" fill="#C3D4FF"/>
<rect x="318.673" y="52.4355" width="3.44335" height="3.43576" fill="#C3D4FF"/>
<rect x="325.559" y="59.3071" width="3.44335" height="3.43576" fill="#C3D4FF"/>
<rect x="325.559" y="52.436" width="3.44335" height="3.43576" fill="#C3D4FF"/>
<rect x="332.445" y="59.3071" width="3.44335" height="3.43576" fill="#C3D4FF"/>
<rect x="332.445" y="52.4355" width="3.44335" height="3.43576" fill="#C3D4FF"/>
<rect x="339.331" y="59.3071" width="3.44335" height="3.43576" fill="#C3D4FF"/>
<rect x="339.331" y="52.4355" width="3.44335" height="3.43576" fill="#C3D4FF"/>
<rect x="346.217" y="59.3071" width="3.44335" height="3.43576" fill="#C3D4FF"/>
<rect x="346.217" y="52.436" width="3.44335" height="3.43576" fill="#C3D4FF"/>
<rect x="353.103" y="59.3071" width="3.44335" height="3.43576" fill="#C3D4FF"/>
<rect x="353.103" y="52.4355" width="3.44335" height="3.43576" fill="#C3D4FF"/>
<rect x="359.99" y="59.3071" width="3.44335" height="3.43576" fill="#C3D4FF"/>
<rect x="359.99" y="52.436" width="3.44335" height="3.43576" fill="#C3D4FF"/>
<rect x="273.913" y="62.7432" width="3.44335" height="3.43576" fill="#C3D4FF"/>
<rect x="273.913" y="55.8721" width="3.44335" height="3.43576" fill="#C3D4FF"/>
<rect x="270.47" y="66.1787" width="10.3292" height="3.43576" fill="#C3D4FF"/>
<rect x="280.799" y="62.7432" width="3.44335" height="3.43576" fill="#C3D4FF"/>
<rect x="280.799" y="55.8721" width="3.44335" height="3.43576" fill="#C3D4FF"/>
<rect x="280.799" y="49" width="3.44335" height="3.43576" fill="#C3D4FF"/>
<rect x="260.141" y="62.7432" width="3.44335" height="3.43576" fill="#C3D4FF"/>
<rect x="260.141" y="55.8721" width="3.44335" height="3.43576" fill="#C3D4FF"/>
<rect x="256.698" y="66.1787" width="10.3292" height="3.43576" fill="#C3D4FF"/>
<rect x="294.572" y="62.7432" width="3.44335" height="3.43576" fill="#C3D4FF"/>
<rect x="294.572" y="55.8721" width="3.44335" height="3.43576" fill="#C3D4FF"/>
<rect x="294.572" y="49" width="3.44335" height="3.43576" fill="#C3D4FF"/>
<rect x="301.457" y="62.7432" width="3.44335" height="3.43576" fill="#C3D4FF"/>
<rect x="301.457" y="55.8721" width="3.44335" height="3.43576" fill="#C3D4FF"/>
<rect x="298.014" y="66.1787" width="10.3292" height="3.43576" fill="#C3D4FF"/>
<rect x="308.344" y="62.7432" width="3.44335" height="3.43576" fill="#C3D4FF"/>
<rect x="308.344" y="55.8721" width="3.44335" height="3.43576" fill="#C3D4FF"/>
<rect x="308.344" y="49" width="3.44335" height="3.43576" fill="#C3D4FF"/>
<rect x="287.685" y="62.7432" width="3.44335" height="3.43576" fill="#C3D4FF"/>
<rect x="287.685" y="55.8721" width="3.44335" height="3.43576" fill="#C3D4FF"/>
<rect x="284.242" y="66.1787" width="10.3292" height="3.43576" fill="#C3D4FF"/>
<rect x="322.116" y="62.7432" width="3.44335" height="3.43576" fill="#C3D4FF"/>
<rect x="322.116" y="55.8721" width="3.44335" height="3.43576" fill="#C3D4FF"/>
<rect x="322.116" y="49" width="3.44335" height="3.43576" fill="#C3D4FF"/>
<rect x="329.001" y="62.7432" width="3.44335" height="3.43576" fill="#C3D4FF"/>
<rect x="329.001" y="55.8721" width="3.44335" height="3.43576" fill="#C3D4FF"/>
<rect x="325.559" y="66.1787" width="10.3292" height="3.43576" fill="#C3D4FF"/>
<rect x="335.888" y="62.7432" width="3.44335" height="3.43576" fill="#C3D4FF"/>
<rect x="335.888" y="55.8721" width="3.44335" height="3.43576" fill="#C3D4FF"/>
<rect x="335.888" y="49" width="3.44335" height="3.43576" fill="#C3D4FF"/>
<rect x="315.229" y="62.7432" width="3.44335" height="3.43576" fill="#C3D4FF"/>
<rect x="315.229" y="55.8721" width="3.44335" height="3.43576" fill="#C3D4FF"/>
<rect x="311.786" y="66.1787" width="10.3292" height="3.43576" fill="#C3D4FF"/>
<rect x="349.66" y="62.7432" width="3.44335" height="3.43576" fill="#C3D4FF"/>
<rect x="349.66" y="55.8721" width="3.44335" height="3.43576" fill="#C3D4FF"/>
<rect x="349.66" y="49" width="3.44335" height="3.43576" fill="#C3D4FF"/>
<rect x="356.546" y="62.7432" width="3.44335" height="3.43576" fill="#C3D4FF"/>
<rect x="356.546" y="55.8721" width="3.44335" height="3.43576" fill="#C3D4FF"/>
<rect x="353.103" y="66.1787" width="10.3292" height="3.43576" fill="#C3D4FF"/>
<rect x="342.774" y="62.7432" width="3.44335" height="3.43576" fill="#C3D4FF"/>
<rect x="342.774" y="55.8721" width="3.44335" height="3.43576" fill="#C3D4FF"/>
<rect x="339.331" y="66.1787" width="10.3292" height="3.43576" fill="#C3D4FF"/>
<rect x="256.698" y="69.6147" width="437.268" height="111.089" fill="#C3D4FF"/>
<rect x="267.027" y="136.039" width="3.44335" height="3.43576" fill="#D9E3FF"/>
<rect x="267.027" y="129.168" width="3.44335" height="3.43576" fill="#D9E3FF"/>
<rect x="267.027" y="122.296" width="3.44335" height="3.43576" fill="#D9E3FF"/>
<rect x="263.583" y="132.603" width="3.44335" height="3.43576" fill="#D9E3FF"/>
<rect x="263.583" y="125.731" width="3.44335" height="3.43576" fill="#D9E3FF"/>
<rect x="270.47" y="132.603" width="3.44335" height="3.43576" fill="#D9E3FF"/>
<rect x="270.47" y="125.732" width="3.44335" height="3.43576" fill="#D9E3FF"/>
<rect x="277.356" y="132.603" width="3.44335" height="3.43576" fill="#D9E3FF"/>
<rect x="277.356" y="125.731" width="3.44335" height="3.43576" fill="#D9E3FF"/>
<rect x="284.242" y="132.603" width="3.44335" height="3.43576" fill="#D9E3FF"/>
<rect x="284.242" y="125.732" width="3.44335" height="3.43576" fill="#D9E3FF"/>
<rect x="291.128" y="132.603" width="3.44335" height="3.43576" fill="#D9E3FF"/>
<rect x="291.128" y="125.731" width="3.44335" height="3.43576" fill="#D9E3FF"/>
<rect x="298.014" y="132.603" width="3.44335" height="3.43576" fill="#D9E3FF"/>
<rect x="298.014" y="125.731" width="3.44335" height="3.43576" fill="#D9E3FF"/>
<rect x="304.901" y="132.603" width="3.44335" height="3.43576" fill="#D9E3FF"/>
<rect x="304.901" y="125.732" width="3.44335" height="3.43576" fill="#D9E3FF"/>
<rect x="311.786" y="132.603" width="3.44335" height="3.43576" fill="#D9E3FF"/>
<rect x="311.786" y="125.731" width="3.44335" height="3.43576" fill="#D9E3FF"/>
<rect x="318.673" y="132.603" width="3.44335" height="3.43576" fill="#D9E3FF"/>
<rect x="318.673" y="125.732" width="3.44335" height="3.43576" fill="#D9E3FF"/>
<rect x="325.559" y="132.603" width="3.44335" height="3.43576" fill="#D9E3FF"/>
<rect x="325.559" y="125.731" width="3.44335" height="3.43576" fill="#D9E3FF"/>
<rect x="332.445" y="132.603" width="3.44335" height="3.43576" fill="#D9E3FF"/>
<rect x="332.445" y="125.732" width="3.44335" height="3.43576" fill="#D9E3FF"/>
<rect x="339.331" y="132.603" width="3.44335" height="3.43576" fill="#D9E3FF"/>
<rect x="339.331" y="125.732" width="3.44335" height="3.43576" fill="#D9E3FF"/>
<rect x="346.217" y="132.603" width="3.44335" height="3.43576" fill="#D9E3FF"/>
<rect x="346.217" y="125.731" width="3.44335" height="3.43576" fill="#D9E3FF"/>
<rect x="353.103" y="132.603" width="3.44335" height="3.43576" fill="#D9E3FF"/>
<rect x="353.103" y="125.732" width="3.44335" height="3.43576" fill="#D9E3FF"/>
<rect x="359.99" y="132.603" width="3.44335" height="3.43576" fill="#D9E3FF"/>
<rect x="359.99" y="125.731" width="3.44335" height="3.43576" fill="#D9E3FF"/>
<rect x="273.913" y="136.039" width="3.44335" height="3.43576" fill="#D9E3FF"/>
<rect x="273.913" y="129.168" width="3.44335" height="3.43576" fill="#D9E3FF"/>
<rect x="270.47" y="139.475" width="10.3292" height="3.43576" fill="#D9E3FF"/>
<rect x="280.799" y="136.039" width="3.44335" height="3.43576" fill="#D9E3FF"/>
<rect x="280.799" y="129.168" width="3.44335" height="3.43576" fill="#D9E3FF"/>
<rect x="280.799" y="122.296" width="3.44335" height="3.43576" fill="#D9E3FF"/>
<rect x="260.141" y="136.039" width="3.44335" height="3.43576" fill="#D9E3FF"/>
<rect x="260.141" y="129.168" width="3.44335" height="3.43576" fill="#D9E3FF"/>
<rect x="256.698" y="139.475" width="10.3292" height="3.43576" fill="#D9E3FF"/>
<rect x="294.572" y="136.039" width="3.44335" height="3.43576" fill="#D9E3FF"/>
<rect x="294.572" y="129.168" width="3.44335" height="3.43576" fill="#D9E3FF"/>
<rect x="294.572" y="122.296" width="3.44335" height="3.43576" fill="#D9E3FF"/>
<rect x="301.457" y="136.039" width="3.44335" height="3.43576" fill="#D9E3FF"/>
<rect x="301.457" y="129.168" width="3.44335" height="3.43576" fill="#D9E3FF"/>
<rect x="298.014" y="139.475" width="10.3292" height="3.43576" fill="#D9E3FF"/>
<rect x="308.344" y="136.039" width="3.44335" height="3.43576" fill="#D9E3FF"/>
<rect x="308.344" y="129.168" width="3.44335" height="3.43576" fill="#D9E3FF"/>
<rect x="308.344" y="122.296" width="3.44335" height="3.43576" fill="#D9E3FF"/>
<rect x="287.685" y="136.039" width="3.44335" height="3.43576" fill="#D9E3FF"/>
<rect x="287.685" y="129.168" width="3.44335" height="3.43576" fill="#D9E3FF"/>
<rect x="284.242" y="139.475" width="10.3292" height="3.43576" fill="#D9E3FF"/>
<rect x="322.116" y="136.039" width="3.44335" height="3.43576" fill="#D9E3FF"/>
<rect x="322.116" y="129.168" width="3.44335" height="3.43576" fill="#D9E3FF"/>
<rect x="322.116" y="122.296" width="3.44335" height="3.43576" fill="#D9E3FF"/>
<rect x="329.001" y="136.039" width="3.44335" height="3.43576" fill="#D9E3FF"/>
<rect x="329.001" y="129.168" width="3.44335" height="3.43576" fill="#D9E3FF"/>
<rect x="325.559" y="139.475" width="10.3292" height="3.43576" fill="#D9E3FF"/>
<rect x="335.888" y="136.039" width="3.44335" height="3.43576" fill="#D9E3FF"/>
<rect x="335.888" y="129.168" width="3.44335" height="3.43576" fill="#D9E3FF"/>
<rect x="335.888" y="122.296" width="3.44335" height="3.43576" fill="#D9E3FF"/>
<rect x="315.229" y="136.039" width="3.44335" height="3.43576" fill="#D9E3FF"/>
<rect x="315.229" y="129.168" width="3.44335" height="3.43576" fill="#D9E3FF"/>
<rect x="311.786" y="139.475" width="10.3292" height="3.43576" fill="#D9E3FF"/>
<rect x="349.66" y="136.039" width="3.44335" height="3.43576" fill="#D9E3FF"/>
<rect x="349.66" y="129.168" width="3.44335" height="3.43576" fill="#D9E3FF"/>
<rect x="349.66" y="122.296" width="3.44335" height="3.43576" fill="#D9E3FF"/>
<rect x="356.546" y="136.039" width="3.44335" height="3.43576" fill="#D9E3FF"/>
<rect x="356.546" y="129.168" width="3.44335" height="3.43576" fill="#D9E3FF"/>
<rect x="353.103" y="139.475" width="10.3292" height="3.43576" fill="#D9E3FF"/>
<rect x="342.774" y="136.039" width="3.44335" height="3.43576" fill="#D9E3FF"/>
<rect x="342.774" y="129.168" width="3.44335" height="3.43576" fill="#D9E3FF"/>
<rect x="339.331" y="139.475" width="10.3292" height="3.43576" fill="#D9E3FF"/>
<rect x="256.698" y="142.911" width="437.268" height="111.089" fill="#D9E3FF"/>
<rect x="2.15234" y="132.603" width="3.44335" height="3.43576" fill="#D9E3FF"/>
<rect x="2.15234" y="125.731" width="3.44335" height="3.43576" fill="#D9E3FF"/>
<rect x="9.03882" y="132.603" width="3.44335" height="3.43576" fill="#D9E3FF"/>
<rect x="9.03882" y="125.732" width="3.44335" height="3.43576" fill="#D9E3FF"/>
<rect x="15.9246" y="132.603" width="3.44335" height="3.43576" fill="#D9E3FF"/>
<rect x="15.9246" y="125.731" width="3.44335" height="3.43576" fill="#D9E3FF"/>
<rect x="22.8109" y="132.603" width="3.44335" height="3.43576" fill="#D9E3FF"/>
<rect x="22.8109" y="125.732" width="3.44335" height="3.43576" fill="#D9E3FF"/>
<rect x="29.6973" y="132.603" width="3.44335" height="3.43576" fill="#D9E3FF"/>
<rect x="29.6973" y="125.731" width="3.44335" height="3.43576" fill="#D9E3FF"/>
<rect x="36.583" y="132.603" width="3.44335" height="3.43576" fill="#D9E3FF"/>
<rect x="36.583" y="125.731" width="3.44335" height="3.43576" fill="#D9E3FF"/>
<rect x="43.4694" y="132.603" width="3.44335" height="3.43576" fill="#D9E3FF"/>
<rect x="43.4694" y="125.732" width="3.44335" height="3.43576" fill="#D9E3FF"/>
<rect x="50.3551" y="132.603" width="3.44335" height="3.43576" fill="#D9E3FF"/>
<rect x="50.3551" y="125.731" width="3.44335" height="3.43576" fill="#D9E3FF"/>
<rect x="57.2415" y="132.603" width="3.44335" height="3.43576" fill="#D9E3FF"/>
<rect x="57.2415" y="125.732" width="3.44335" height="3.43576" fill="#D9E3FF"/>
<rect x="64.1279" y="132.603" width="3.44335" height="3.43576" fill="#D9E3FF"/>
<rect x="64.1279" y="125.731" width="3.44335" height="3.43576" fill="#D9E3FF"/>
<rect x="71.0135" y="132.603" width="3.44335" height="3.43576" fill="#D9E3FF"/>
<rect x="71.0135" y="125.732" width="3.44335" height="3.43576" fill="#D9E3FF"/>
<rect x="77.9" y="132.603" width="3.44335" height="3.43576" fill="#D9E3FF"/>
<rect x="77.9" y="125.731" width="3.44335" height="3.43576" fill="#D9E3FF"/>
<rect x="84.7856" y="132.603" width="3.44335" height="3.43576" fill="#D9E3FF"/>
<rect x="84.7856" y="125.731" width="3.44335" height="3.43576" fill="#D9E3FF"/>
<rect x="91.6721" y="132.603" width="3.44335" height="3.43576" fill="#D9E3FF"/>
<rect x="91.6721" y="125.732" width="3.44335" height="3.43576" fill="#D9E3FF"/>
<rect x="98.5579" y="132.603" width="3.44335" height="3.43576" fill="#D9E3FF"/>
<rect x="98.5579" y="125.731" width="3.44335" height="3.43576" fill="#D9E3FF"/>
<rect x="105.444" y="132.603" width="3.44335" height="3.43576" fill="#D9E3FF"/>
<rect x="105.444" y="125.732" width="3.44335" height="3.43576" fill="#D9E3FF"/>
<rect x="112.331" y="132.603" width="3.44335" height="3.43576" fill="#D9E3FF"/>
<rect x="112.331" y="125.731" width="3.44335" height="3.43576" fill="#D9E3FF"/>
<rect x="119.216" y="132.603" width="3.44335" height="3.43576" fill="#D9E3FF"/>
<rect x="119.216" y="125.732" width="3.44335" height="3.43576" fill="#D9E3FF"/>
<rect x="126.103" y="132.603" width="3.44335" height="3.43576" fill="#D9E3FF"/>
<rect x="126.103" y="125.732" width="3.44335" height="3.43576" fill="#D9E3FF"/>
<rect x="132.988" y="132.603" width="3.44335" height="3.43576" fill="#D9E3FF"/>
<rect x="132.988" y="125.731" width="3.44335" height="3.43576" fill="#D9E3FF"/>
<rect x="139.875" y="132.603" width="3.44335" height="3.43576" fill="#D9E3FF"/>
<rect x="139.875" y="125.732" width="3.44335" height="3.43576" fill="#D9E3FF"/>
<rect x="146.761" y="132.603" width="3.44335" height="3.43576" fill="#D9E3FF"/>
<rect x="146.761" y="125.731" width="3.44335" height="3.43576" fill="#D9E3FF"/>
<rect x="153.647" y="132.603" width="3.44335" height="3.43576" fill="#D9E3FF"/>
<rect x="153.647" y="125.732" width="3.44335" height="3.43576" fill="#D9E3FF"/>
<rect x="160.533" y="132.603" width="3.44335" height="3.43576" fill="#D9E3FF"/>
<rect x="160.533" y="125.731" width="3.44335" height="3.43576" fill="#D9E3FF"/>
<rect x="167.419" y="132.603" width="3.44335" height="3.43576" fill="#D9E3FF"/>
<rect x="167.419" y="125.731" width="3.44335" height="3.43576" fill="#D9E3FF"/>
<rect x="174.305" y="132.603" width="3.44335" height="3.43576" fill="#D9E3FF"/>
<rect x="174.305" y="125.732" width="3.44335" height="3.43576" fill="#D9E3FF"/>
<rect x="181.191" y="132.603" width="3.44335" height="3.43576" fill="#D9E3FF"/>
<rect x="181.191" y="125.731" width="3.44335" height="3.43576" fill="#D9E3FF"/>
<rect x="188.078" y="132.603" width="3.44335" height="3.43576" fill="#D9E3FF"/>
<rect x="188.078" y="125.732" width="3.44335" height="3.43576" fill="#D9E3FF"/>
<rect x="194.964" y="132.603" width="3.44335" height="3.43576" fill="#D9E3FF"/>
<rect x="194.964" y="125.731" width="3.44335" height="3.43576" fill="#D9E3FF"/>
<rect x="201.85" y="132.603" width="3.44335" height="3.43576" fill="#D9E3FF"/>
<rect x="201.85" y="125.732" width="3.44335" height="3.43576" fill="#D9E3FF"/>
<rect x="208.736" y="132.603" width="3.44335" height="3.43576" fill="#D9E3FF"/>
<rect x="208.736" y="125.731" width="3.44335" height="3.43576" fill="#D9E3FF"/>
<rect x="215.622" y="132.603" width="3.44335" height="3.43576" fill="#D9E3FF"/>
<rect x="215.622" y="125.731" width="3.44335" height="3.43576" fill="#D9E3FF"/>
<rect x="222.508" y="132.603" width="3.44335" height="3.43576" fill="#D9E3FF"/>
<rect x="222.508" y="125.732" width="3.44335" height="3.43576" fill="#D9E3FF"/>
<rect x="229.395" y="132.603" width="3.44335" height="3.43576" fill="#D9E3FF"/>
<rect x="229.395" y="125.731" width="3.44335" height="3.43576" fill="#D9E3FF"/>
<rect x="236.28" y="132.603" width="3.44335" height="3.43576" fill="#D9E3FF"/>
<rect x="236.28" y="125.732" width="3.44335" height="3.43576" fill="#D9E3FF"/>
<rect x="243.167" y="132.603" width="3.44335" height="3.43576" fill="#D9E3FF"/>
<rect x="243.167" y="125.731" width="3.44335" height="3.43576" fill="#D9E3FF"/>
<rect x="250.052" y="132.603" width="3.44335" height="3.43576" fill="#D9E3FF"/>
<rect x="250.052" y="125.731" width="3.44335" height="3.43576" fill="#D9E3FF"/>
<rect x="256.939" y="132.603" width="3.44335" height="3.43576" fill="#D9E3FF"/>
<rect x="256.939" y="125.732" width="3.44335" height="3.43576" fill="#D9E3FF"/>
<rect x="5.59558" y="136.039" width="3.44335" height="3.43576" fill="#D9E3FF"/>
<rect x="5.59558" y="129.168" width="3.44335" height="3.43576" fill="#D9E3FF"/>
<rect x="5.5957" y="122.296" width="3.44335" height="3.43576" fill="#D9E3FF"/>
<rect x="12.4819" y="136.039" width="3.44335" height="3.43576" fill="#D9E3FF"/>
<rect x="12.4819" y="129.168" width="3.44335" height="3.43576" fill="#D9E3FF"/>
<rect x="9.0387" y="139.475" width="10.3292" height="3.43576" fill="#D9E3FF"/>
<rect x="19.3677" y="136.039" width="3.44335" height="3.43576" fill="#D9E3FF"/>
<rect x="19.3677" y="129.168" width="3.44335" height="3.43576" fill="#D9E3FF"/>
<rect x="19.3677" y="122.296" width="3.44335" height="3.43576" fill="#D9E3FF"/>
<rect x="-1.29016" y="136.039" width="3.44335" height="3.43576" fill="#D9E3FF"/>
<rect x="-1.29016" y="129.168" width="3.44335" height="3.43576" fill="#D9E3FF"/>
<rect x="-4.73328" y="139.475" width="10.3292" height="3.43576" fill="#D9E3FF"/>
<rect x="33.1398" y="136.039" width="3.44335" height="3.43576" fill="#D9E3FF"/>
<rect x="33.1398" y="129.168" width="3.44335" height="3.43576" fill="#D9E3FF"/>
<rect x="33.1398" y="122.296" width="3.44335" height="3.43576" fill="#D9E3FF"/>
<rect x="40.0261" y="136.039" width="3.44335" height="3.43576" fill="#D9E3FF"/>
<rect x="40.0261" y="129.168" width="3.44335" height="3.43576" fill="#D9E3FF"/>
<rect x="36.583" y="139.475" width="10.3292" height="3.43576" fill="#D9E3FF"/>
<rect x="46.9126" y="136.039" width="3.44335" height="3.43576" fill="#D9E3FF"/>
<rect x="46.9126" y="129.168" width="3.44335" height="3.43576" fill="#D9E3FF"/>
<rect x="46.9126" y="122.296" width="3.44335" height="3.43576" fill="#D9E3FF"/>
<rect x="26.2539" y="136.039" width="3.44335" height="3.43576" fill="#D9E3FF"/>
<rect x="26.254" y="129.168" width="3.44335" height="3.43576" fill="#D9E3FF"/>
<rect x="22.8109" y="139.475" width="10.3292" height="3.43576" fill="#D9E3FF"/>
<rect x="60.6847" y="136.039" width="3.44335" height="3.43576" fill="#D9E3FF"/>
<rect x="60.6847" y="129.168" width="3.44335" height="3.43576" fill="#D9E3FF"/>
<rect x="60.6847" y="122.296" width="3.44335" height="3.43576" fill="#D9E3FF"/>
<rect x="170.862" y="136.039" width="3.44335" height="3.43576" fill="#D9E3FF"/>
<rect x="170.862" y="129.168" width="3.44335" height="3.43576" fill="#D9E3FF"/>
<rect x="170.862" y="122.296" width="3.44335" height="3.43576" fill="#D9E3FF"/>
<rect x="67.5704" y="136.039" width="3.44335" height="3.43576" fill="#D9E3FF"/>
<rect x="67.5704" y="129.168" width="3.44335" height="3.43576" fill="#D9E3FF"/>
<rect x="177.749" y="136.039" width="3.44335" height="3.43576" fill="#D9E3FF"/>
<rect x="177.749" y="129.168" width="3.44335" height="3.43576" fill="#D9E3FF"/>
<rect x="64.1279" y="139.475" width="10.3292" height="3.43576" fill="#D9E3FF"/>
<rect x="174.305" y="139.475" width="10.3292" height="3.43576" fill="#D9E3FF"/>
<rect x="74.4568" y="136.039" width="3.44335" height="3.43576" fill="#D9E3FF"/>
<rect x="74.4568" y="129.168" width="3.44335" height="3.43576" fill="#D9E3FF"/>
<rect x="74.4568" y="122.296" width="3.44335" height="3.43576" fill="#D9E3FF"/>
<rect x="184.635" y="136.039" width="3.44335" height="3.43576" fill="#D9E3FF"/>
<rect x="184.634" y="129.168" width="3.44335" height="3.43576" fill="#D9E3FF"/>
<rect x="184.635" y="122.296" width="3.44335" height="3.43576" fill="#D9E3FF"/>
<rect x="53.7983" y="136.039" width="3.44335" height="3.43576" fill="#D9E3FF"/>
<rect x="53.7983" y="129.168" width="3.44335" height="3.43576" fill="#D9E3FF"/>
<rect x="163.976" y="136.039" width="3.44335" height="3.43576" fill="#D9E3FF"/>
<rect x="163.976" y="129.168" width="3.44335" height="3.43576" fill="#D9E3FF"/>
<rect x="50.3551" y="139.475" width="10.3292" height="3.43576" fill="#D9E3FF"/>
<rect x="160.533" y="139.475" width="10.3292" height="3.43576" fill="#D9E3FF"/>
<rect x="88.229" y="136.039" width="3.44335" height="3.43576" fill="#D9E3FF"/>
<rect x="88.2289" y="129.168" width="3.44335" height="3.43576" fill="#D9E3FF"/>
<rect x="88.229" y="122.296" width="3.44335" height="3.43576" fill="#D9E3FF"/>
<rect x="198.406" y="136.039" width="3.44335" height="3.43576" fill="#D9E3FF"/>
<rect x="198.406" y="129.168" width="3.44335" height="3.43576" fill="#D9E3FF"/>
<rect x="198.406" y="122.296" width="3.44335" height="3.43576" fill="#D9E3FF"/>
<rect x="95.1152" y="136.039" width="3.44335" height="3.43576" fill="#D9E3FF"/>
<rect x="95.1152" y="129.168" width="3.44335" height="3.43576" fill="#D9E3FF"/>
<rect x="205.293" y="136.039" width="3.44335" height="3.43576" fill="#D9E3FF"/>
<rect x="205.293" y="129.168" width="3.44335" height="3.43576" fill="#D9E3FF"/>
<rect x="91.672" y="139.475" width="10.3292" height="3.43576" fill="#D9E3FF"/>
<rect x="201.85" y="139.475" width="10.3292" height="3.43576" fill="#D9E3FF"/>
<rect x="102.001" y="136.039" width="3.44335" height="3.43576" fill="#D9E3FF"/>
<rect x="102.001" y="129.168" width="3.44335" height="3.43576" fill="#D9E3FF"/>
<rect x="102.001" y="122.296" width="3.44335" height="3.43576" fill="#D9E3FF"/>
<rect x="212.179" y="136.039" width="3.44335" height="3.43576" fill="#D9E3FF"/>
<rect x="212.179" y="129.168" width="3.44335" height="3.43576" fill="#D9E3FF"/>
<rect x="212.179" y="122.296" width="3.44335" height="3.43576" fill="#D9E3FF"/>
<rect x="81.3431" y="136.039" width="3.44335" height="3.43576" fill="#D9E3FF"/>
<rect x="81.3431" y="129.168" width="3.44335" height="3.43576" fill="#D9E3FF"/>
<rect x="191.521" y="136.039" width="3.44335" height="3.43576" fill="#D9E3FF"/>
<rect x="191.521" y="129.168" width="3.44335" height="3.43576" fill="#D9E3FF"/>
<rect x="77.9" y="139.475" width="10.3292" height="3.43576" fill="#D9E3FF"/>
<rect x="188.078" y="139.475" width="10.3292" height="3.43576" fill="#D9E3FF"/>
<rect x="115.773" y="136.039" width="3.44335" height="3.43576" fill="#D9E3FF"/>
<rect x="115.773" y="129.168" width="3.44335" height="3.43576" fill="#D9E3FF"/>
<rect x="115.773" y="122.296" width="3.44335" height="3.43576" fill="#D9E3FF"/>
<rect x="225.951" y="136.039" width="3.44335" height="3.43576" fill="#D9E3FF"/>
<rect x="225.951" y="129.168" width="3.44335" height="3.43576" fill="#D9E3FF"/>
<rect x="225.951" y="122.296" width="3.44335" height="3.43576" fill="#D9E3FF"/>
<rect x="122.66" y="136.039" width="3.44335" height="3.43576" fill="#D9E3FF"/>
<rect x="122.66" y="129.168" width="3.44335" height="3.43576" fill="#D9E3FF"/>
<rect x="232.837" y="136.039" width="3.44335" height="3.43576" fill="#D9E3FF"/>
<rect x="232.837" y="129.168" width="3.44335" height="3.43576" fill="#D9E3FF"/>
<rect x="119.216" y="139.475" width="10.3292" height="3.43576" fill="#D9E3FF"/>
<rect x="229.395" y="139.475" width="10.3292" height="3.43576" fill="#D9E3FF"/>
<rect x="129.546" y="136.039" width="3.44335" height="3.43576" fill="#D9E3FF"/>
<rect x="129.546" y="129.168" width="3.44335" height="3.43576" fill="#D9E3FF"/>
<rect x="129.546" y="122.296" width="3.44335" height="3.43576" fill="#D9E3FF"/>
<rect x="239.723" y="136.039" width="3.44335" height="3.43576" fill="#D9E3FF"/>
<rect x="239.723" y="129.168" width="3.44335" height="3.43576" fill="#D9E3FF"/>
<rect x="239.723" y="122.296" width="3.44335" height="3.43576" fill="#D9E3FF"/>
<rect x="108.887" y="136.039" width="3.44335" height="3.43576" fill="#D9E3FF"/>
<rect x="108.887" y="129.168" width="3.44335" height="3.43576" fill="#D9E3FF"/>
<rect x="219.065" y="136.039" width="3.44335" height="3.43576" fill="#D9E3FF"/>
<rect x="219.065" y="129.168" width="3.44335" height="3.43576" fill="#D9E3FF"/>
<rect x="105.444" y="139.475" width="10.3292" height="3.43576" fill="#D9E3FF"/>
<rect x="215.622" y="139.475" width="10.3292" height="3.43576" fill="#D9E3FF"/>
<rect x="143.318" y="136.039" width="3.44335" height="3.43576" fill="#D9E3FF"/>
<rect x="143.318" y="129.168" width="3.44335" height="3.43576" fill="#D9E3FF"/>
<rect x="143.318" y="122.296" width="3.44335" height="3.43576" fill="#D9E3FF"/>
<rect x="253.496" y="136.039" width="3.44335" height="3.43576" fill="#D9E3FF"/>
<rect x="253.496" y="129.168" width="3.44335" height="3.43576" fill="#D9E3FF"/>
<rect x="253.496" y="122.296" width="3.44335" height="3.43576" fill="#D9E3FF"/>
<rect x="150.204" y="136.039" width="3.44335" height="3.43576" fill="#D9E3FF"/>
<rect x="150.204" y="129.168" width="3.44335" height="3.43576" fill="#D9E3FF"/>
<rect x="260.382" y="136.039" width="3.44335" height="3.43576" fill="#D9E3FF"/>
<rect x="260.382" y="129.168" width="3.44335" height="3.43576" fill="#D9E3FF"/>
<rect x="146.761" y="139.475" width="10.3292" height="3.43576" fill="#D9E3FF"/>
<rect x="256.939" y="139.475" width="10.3292" height="3.43576" fill="#D9E3FF"/>
<rect x="157.09" y="136.039" width="3.44335" height="3.43576" fill="#D9E3FF"/>
<rect x="157.09" y="129.168" width="3.44335" height="3.43576" fill="#D9E3FF"/>
<rect x="157.09" y="122.296" width="3.44335" height="3.43576" fill="#D9E3FF"/>
<rect x="136.432" y="136.039" width="3.44335" height="3.43576" fill="#D9E3FF"/>
<rect x="136.432" y="129.168" width="3.44335" height="3.43576" fill="#D9E3FF"/>
<rect x="246.609" y="136.039" width="3.44335" height="3.43576" fill="#D9E3FF"/>
<rect x="246.609" y="129.168" width="3.44335" height="3.43576" fill="#D9E3FF"/>
<rect x="132.988" y="139.475" width="10.3292" height="3.43576" fill="#D9E3FF"/>
<rect x="243.167" y="139.475" width="10.3292" height="3.43576" fill="#D9E3FF"/>
<rect x="-170" y="142.911" width="437.268" height="111.089" fill="#D9E3FF"/>
<rect x="-23.2729" y="9" width="87.9545" height="15.6818" fill="white"/>
<rect x="-22.5912" y="24.6816" width="130.909" height="6.81818" fill="white"/>
<rect width="34.7727" height="7.5" transform="matrix(-1 0 0 1 8.77271 31.5)" fill="#FFECC6"/>
<rect width="51" height="23" transform="matrix(-1 0 0 1 339 77)" fill="white"/>
<rect width="133" height="11" transform="matrix(-1 0 0 1 401 96)" fill="white"/>
<rect width="31" height="7" transform="matrix(-1 0 0 1 370 89)" fill="#FFECC6"/>
<rect width="20" height="7" transform="matrix(-1 0 0 1 308 100)" fill="#FFECC6"/>
</svg>
